<?xml version="1.0"?>
<svg version="1.1" id="btn-menu-open" xmlns="http://www.w3.org/2000/svg" xmlns:xlink="http://www.w3.org/1999/xlink" x="0px" y="0px" viewBox="0 0 16 16" style="enable-background:new 0 0 16 16;" xml:space="preserve">
								<g>
									<path d="M2,4L2,4C0.9,4,0,3.1,0,2v0c0-1.1,0.9-2,2-2h0c1.1,0,2,0.9,2,2v0C4,3.1,3.1,4,2,4z"></path>
									<path d="M8,4L8,4C6.9,4,6,3.1,6,2v0c0-1.1,0.9-2,2-2h0c1.1,0,2,0.9,2,2v0C10,3.1,9.1,4,8,4z"></path>
									<path d="M14,4L14,4c-1.1,0-2-0.9-2-2v0c0-1.1,0.9-2,2-2h0c1.1,0,2,0.9,2,2v0C16,3.1,15.1,4,14,4z"></path>
									<path d="M2,10L2,10c-1.1,0-2-0.9-2-2v0c0-1.1,0.9-2,2-2h0c1.1,0,2,0.9,2,2v0C4,9.1,3.1,10,2,10z"></path>
									<path d="M8,10L8,10c-1.1,0-2-0.9-2-2v0c0-1.1,0.9-2,2-2h0c1.1,0,2,0.9,2,2v0C10,9.1,9.1,10,8,10z"></path>
									<path d="M14,10L14,10c-1.1,0-2-0.9-2-2v0c0-1.1,0.9-2,2-2h0c1.1,0,2,0.9,2,2v0C16,9.1,15.1,10,14,10z"></path>
									<path d="M2,16L2,16c-1.1,0-2-0.9-2-2v0c0-1.1,0.9-2,2-2h0c1.1,0,2,0.9,2,2v0C4,15.1,3.1,16,2,16z"></path>
									<path d="M8,16L8,16c-1.1,0-2-0.9-2-2v0c0-1.1,0.9-2,2-2h0c1.1,0,2,0.9,2,2v0C10,15.1,9.1,16,8,16z"></path>
									<path d="M14,16L14,16c-1.1,0-2-0.9-2-2v0c0-1.1,0.9-2,2-2h0c1.1,0,2,0.9,2,2v0C16,15.1,15.1,16,14,16z"></path>
								</g>
							</svg>